<svg width="328" height="36" viewBox="0 0 328 36" fill="none" xmlns="http://www.w3.org/2000/svg">
<rect width="328" height="36" rx="8" fill="#E6E8EB"/>
<path d="M37.12 12.38H45.488V23.5H44.016V13.468H38.592V23.5H37.12V12.38ZM50.9614 23.66C50.4174 23.66 49.9054 23.5693 49.4254 23.388C48.956 23.196 48.5454 22.924 48.1934 22.572C47.852 22.2093 47.58 21.772 47.3774 21.26C47.1854 20.7373 47.0894 20.14 47.0894 19.468C47.0894 18.796 47.1854 18.204 47.3774 17.692C47.58 17.1693 47.852 16.732 48.1934 16.38C48.5454 16.028 48.956 15.7613 49.4254 15.58C49.9054 15.388 50.4174 15.292 50.9614 15.292C51.516 15.292 52.0334 15.388 52.5134 15.58C52.9934 15.7613 53.4094 16.028 53.7614 16.38C54.1134 16.732 54.3854 17.1693 54.5774 17.692C54.78 18.204 54.8814 18.796 54.8814 19.468C54.8814 20.14 54.78 20.7373 54.5774 21.26C54.3854 21.772 54.1134 22.2093 53.7614 22.572C53.4094 22.924 52.9934 23.196 52.5134 23.388C52.0334 23.5693 51.516 23.66 50.9614 23.66ZM50.9614 22.684C51.324 22.684 51.66 22.6253 51.9694 22.508C52.2787 22.3907 52.5454 22.204 52.7694 21.948C52.9934 21.692 53.1694 21.3613 53.2974 20.956C53.4254 20.54 53.4894 20.044 53.4894 19.468C53.4894 18.892 53.4254 18.4013 53.2974 17.996C53.1694 17.5907 52.9934 17.26 52.7694 17.004C52.5454 16.748 52.2787 16.5613 51.9694 16.444C51.66 16.3267 51.324 16.268 50.9614 16.268C50.6094 16.268 50.2787 16.3267 49.9694 16.444C49.6707 16.5613 49.4094 16.748 49.1854 17.004C48.9614 17.26 48.7854 17.5907 48.6574 17.996C48.54 18.4013 48.4814 18.892 48.4814 19.468C48.4814 20.044 48.54 20.54 48.6574 20.956C48.7854 21.3613 48.9614 21.692 49.1854 21.948C49.4094 22.204 49.6707 22.3907 49.9694 22.508C50.2787 22.6253 50.6094 22.684 50.9614 22.684ZM57.6794 21.676L62.1114 15.452H63.3594V23.5H61.9994V17.26L57.5834 23.5H56.3194V15.452H57.6794V21.676ZM68.8405 23.66C68.2112 23.66 67.6458 23.5693 67.1445 23.388C66.6538 23.196 66.2325 22.9187 65.8805 22.556C65.5285 22.1933 65.2565 21.756 65.0645 21.244C64.8832 20.7213 64.7925 20.1293 64.7925 19.468C64.7925 18.1453 65.1552 17.1213 65.8805 16.396C66.6165 15.66 67.6245 15.292 68.9045 15.292C69.3952 15.292 69.8485 15.3507 70.2645 15.468C70.6805 15.5853 71.0218 15.756 71.2885 15.98V17.02C70.9578 16.8067 70.5898 16.6467 70.1845 16.54C69.7792 16.4333 69.3578 16.38 68.9205 16.38C67.9818 16.38 67.2885 16.636 66.8405 17.148C66.4032 17.66 66.1845 18.4333 66.1845 19.468C66.1845 20.5133 66.3978 21.292 66.8245 21.804C67.2512 22.316 67.9232 22.572 68.8405 22.572C69.3205 22.572 69.7632 22.5133 70.1685 22.396C70.5845 22.2787 70.9578 22.1187 71.2885 21.916V22.956C71.0005 23.18 70.6538 23.356 70.2485 23.484C69.8432 23.6013 69.3738 23.66 68.8405 23.66ZM73.8981 15.452V23.5H72.5381V15.452H73.8981ZM75.6421 19.34L79.1141 23.5H77.4501L74.1221 19.532L77.6261 15.452H79.0501L75.6421 19.34Z" fill="#AEAFB4"/>
</svg>
